<?xml version="1.0" encoding="iso-8859-1"?>
<!-- Generator: Adobe Illustrator 19.0.0, SVG Export Plug-In . SVG Version: 6.00 Build 0)  -->
<svg version="1.1" xmlns="http://www.w3.org/2000/svg" xmlns:xlink="http://www.w3.org/1999/xlink" x="0px" y="0px"
	 viewBox="0 0 53.145 51.548" style="enable-background:new 0 0 53.145 51.548;" xml:space="preserve">
<g id="healer">
	<g>
		<g transform="matrix( 1, 0, 0, 1, 0,0) ">
			<g>
				<g id="Layer2_0_FILL_6_">
					<path style="fill:#6AC079;" d="M31.648,20.674v-12.6h-10.15v12.6h-12.6v10.05h12.6v12.75h10.15v-12.75h12.6v-10.05H31.648z"/>
				</g>
			</g>
			<g>
				<path style="fill:#010101;" d="M32.648,44.474h-12.15v-12.75h-12.6v-12.05h12.6v-12.6h12.15v12.6h12.6v12.05h-12.6V44.474z
					 M22.498,42.474h8.15v-12.75h12.6v-8.05h-12.6v-12.6h-8.15v12.6h-12.6v8.05h12.6V42.474z"/>
			</g>
		</g>
		<g transform="matrix( 1, 0, 0, 1, 0,0) ">
			<g>
				<g id="Layer2_1_FILL_5_">
					<path style="fill:#37B551;" d="M31.648,20.674v-12.6h-10.15v12.6h-12.6v10.05h12.6v12.75h10.15v-12.75h12.6v-10.05H31.648z"/>
				</g>
			</g>
		</g>
		<g transform="matrix( 1, 0, 0, 1, 0,0) ">
			<g>
				<g id="Layer2_2_FILL_4_">
					<path style="fill:#010101;" d="M29.598,28.724c2.2-2.033,3.017-3.733,2.45-5.1c-0.4-1.233-1.333-1.867-2.8-1.9
						c-1.4,0.1-2.333,0.867-2.8,2.3c-0.433-1.433-1.333-2.2-2.7-2.3c-1.5,0.033-2.45,0.667-2.85,1.9
						c-0.533,1.367,0.283,3.067,2.45,5.1c0.867,0.867,1.9,2.2,3.1,4C27.681,30.924,28.731,29.591,29.598,28.724z"/>
				</g>
			</g>
		</g>
		<g transform="matrix( 1, 0, 0, 1, 0,0) ">
			<g>
				<g id="Layer2_3_FILL_1_">
					<path style="fill:#6AC079;" d="M9.948,30.124h10.65l-10.65-8.25V30.124 M22.448,31.974v10.85h8.1L22.448,31.974 M30.448,19.974
						V8.624h-7.75L30.448,19.974 M43.348,21.574h-10.3l10.3,8.1V21.574z"/>
				</g>
			</g>
		</g>
	</g>
</g>
<g id="Layer_1">
</g>
</svg>
