<?xml version="1.0" encoding="iso-8859-1"?>
<!-- Generator: Adobe Illustrator 19.0.0, SVG Export Plug-In . SVG Version: 6.00 Build 0)  -->
<svg version="1.1" xmlns="http://www.w3.org/2000/svg" xmlns:xlink="http://www.w3.org/1999/xlink" x="0px" y="0px"
	 viewBox="0 0 53.145 51.548" style="enable-background:new 0 0 53.145 51.548;" xml:space="preserve">
<g id="shielder">
	<g>
		<g transform="matrix( 1, 0, 0, 1, 0,0) ">
			<g>
				<path style="fill:#010101;" d="M26.535,46.576l-0.468-0.274c-6.292-3.69-11.914-9.002-16.711-15.785l-0.184-0.26V8.145
					l1.043,0.045c5.939,0.25,11.294-0.756,15.921-3.001l0.446-0.217l0.443,0.225c4.382,2.223,9.737,3.224,15.909,2.993l1.039-0.04
					v22.081l-0.157,0.246c-4.632,7.261-10.283,12.596-16.795,15.856L26.535,46.576z M11.173,29.62
					c4.47,6.258,9.66,11.192,15.437,14.678c5.91-3.079,11.075-8.005,15.363-14.651V10.217c-5.889,0.09-11.06-0.914-15.409-3.018
					c-4.546,2.115-9.725,3.147-15.391,3.021V29.62z"/>
			</g>
		</g>
		<g transform="matrix( 1, 0, 0, 1, 0,0) ">
			<g>
				<g id="Layer2_1_FILL_7_">
					<path style="fill:#37B551;" d="M42.973,9.189c-6.377,0.245-11.843-0.789-16.4-3.1c-4.8,2.33-10.267,3.363-16.4,3.1v20.75
						c4.736,6.698,10.202,11.864,16.4,15.5c6.379-3.193,11.846-8.36,16.4-15.5V9.189z"/>
				</g>
			</g>
		</g>
		<g transform="matrix( 1, 0, 0, 1, 0,0) ">
			<g>
				<g id="Layer2_2_FILL_7_">
					<path style="fill:#010101;" d="M42.973,9.189c-2.317,0.089-4.517,0.006-6.6-0.25l-4.85,4.9l-3.35-3.3v12.45h12.5l-3.3-3.3
						l5.6-5.65V9.189 M36.723,9.689c1.7,0.233,3.433,0.3,5.2,0.2v3.85l-5.7,5.85l2.6,2.6h-9.9v-0.15v-9.7l2.65,2.65L36.723,9.689z"
						/>
					<path style="fill:#33523C;" d="M28.923,22.039v0.15h9.9l-2.6-2.6l5.7-5.85v-3.85L28.923,22.039z"/>
					<path style="fill:#3A724D;" d="M41.923,9.889c-1.767,0.1-3.5,0.033-5.2-0.2l-5.15,5.3l-2.65-2.65v9.7L41.923,9.889z"/>
				</g>
			</g>
		</g>
		<g transform="matrix( 1, 0, 0, 1, 0,0) ">
			<g>
				<g id="Layer2_3_FILL_2_">
					<path style="fill:#6AC079;" d="M26.473,42.539l-0.2-33.15c-5.027,1.897-9.794,2.547-14.3,1.95v16.35
						C16.033,34.015,20.866,38.965,26.473,42.539z"/>
				</g>
			</g>
		</g>
	</g>
</g>
<g id="Layer_1">
</g>
</svg>
